<?xml version="1.0" standalone="no"?>
<!DOCTYPE svg PUBLIC "-//W3C//DTD SVG 20010904//EN"
 "http://www.w3.org/TR/2001/REC-SVG-20010904/DTD/svg10.dtd">
<svg version="1.0" xmlns="http://www.w3.org/2000/svg"
 width="379.000000pt" height="55.000000pt" viewBox="0 0 379.000000 55.000000"
 preserveAspectRatio="xMidYMid meet">

<g transform="translate(0.000000,55.000000) scale(0.100000,-0.100000)"
fill="#000000" stroke="none">
<path d="M405 512 c49 -18 75 -18 58 -1 -5 5 -31 11 -58 14 l-50 6 50 -19z"/>
<path d="M278 503 c-29 -7 -20 -23 12 -23 18 0 30 -5 30 -13 0 -8 22 -19 54
-26 56 -12 140 -61 150 -86 8 -21 68 1 64 23 -5 26 -96 89 -152 105 -58 18
-133 27 -158 20z"/>
<path d="M514 465 c11 -8 27 -15 35 -15 11 0 10 4 -5 15 -10 8 -26 14 -34 14
-11 0 -10 -3 4 -14z"/>
<path d="M240 460 c-58 -10 -109 -31 -92 -37 7 -3 25 0 40 6 15 6 44 12 64 13
22 2 38 8 38 16 0 6 -1 11 -2 11 -2 -1 -23 -5 -48 -9z"/>
<path d="M175 406 c-27 -12 -56 -30 -64 -39 -11 -14 -10 -18 12 -28 22 -10 30
-8 53 10 108 85 301 15 298 -109 -2 -48 -32 -92 -81 -116 -51 -25 -158 -26
-196 -1 -21 14 -32 15 -47 7 -31 -16 -24 -29 28 -53 64 -30 179 -29 238 1 125
64 156 182 73 276 -67 77 -210 101 -314 52z"/>
<path d="M720 354 c0 -13 11 -15 58 -13 l57 3 3 -82 c2 -73 5 -82 22 -82 17 0
20 9 22 82 l3 82 58 -3 c46 -2 57 0 57 13 0 14 -19 16 -140 16 -121 0 -140 -2
-140 -16z"/>
<path d="M1037 281 c-42 -49 -77 -92 -77 -95 0 -3 9 -6 19 -6 12 0 44 29 82
75 34 41 64 75 67 75 6 0 31 -33 32 -42 0 -3 -8 -4 -18 -1 -10 2 -24 -3 -31
-11 -12 -14 -8 -16 32 -16 41 0 49 -4 79 -41 24 -29 41 -40 55 -37 18 3 11 15
-54 93 -42 50 -83 91 -93 93 -11 2 -43 -28 -93 -87z"/>
<path d="M1330 275 c0 -88 1 -95 20 -95 17 0 20 7 20 40 l0 40 65 0 c64 0 65
0 91 -40 19 -28 34 -40 51 -40 l24 0 -27 35 c-15 20 -25 37 -23 39 2 2 14 9
27 15 29 15 31 75 3 91 -11 5 -72 10 -135 10 l-116 0 0 -95z m230 39 c0 -24
-2 -24 -85 -24 -47 0 -88 0 -92 -1 -5 0 -10 7 -11 16 -8 36 3 40 97 37 89 -3
91 -4 91 -28z"/>
<path d="M1658 359 c-15 -8 -18 -24 -18 -85 0 -71 1 -75 26 -84 33 -13 185
-13 218 0 22 8 26 16 26 50 0 33 -3 40 -20 40 -16 0 -20 -7 -20 -35 l0 -36
-92 3 -93 3 -3 63 -3 62 116 0 c96 0 115 3 115 15 0 12 -20 15 -117 15 -65 0
-126 -5 -135 -11z"/>
<path d="M1960 275 l0 -95 120 0 c100 0 120 3 120 15 0 12 -18 15 -100 15
l-100 0 0 25 c0 25 0 25 95 25 76 0 95 3 95 15 0 11 -18 14 -92 13 l-93 -1 0
28 0 28 98 -2 c82 -2 97 0 97 13 0 14 -18 16 -120 16 l-120 0 0 -95z"/>
<path d="M2230 354 c0 -13 11 -15 63 -13 l62 3 1 -80 c1 -70 4 -79 20 -79 17
0 19 10 22 81 l3 80 59 -4 c50 -4 60 -2 60 12 0 14 -18 16 -145 16 -125 0
-145 -2 -145 -16z"/>
<path d="M2568 359 c-25 -14 -24 -75 1 -89 11 -5 64 -10 119 -10 100 0 116 -6
105 -37 -3 -10 -36 -13 -119 -13 -95 0 -114 -3 -114 -15 0 -12 20 -15 119 -15
102 0 122 3 142 19 20 16 22 23 14 47 -13 35 -35 42 -152 43 -92 1 -93 1 -93
26 l0 25 115 0 c96 0 115 3 115 15 0 12 -20 15 -117 15 -65 0 -126 -5 -135
-11z"/>
<path d="M2898 359 c-15 -8 -18 -24 -18 -85 0 -71 1 -75 26 -84 14 -6 70 -10
124 -10 54 0 110 4 124 10 25 9 26 13 26 84 0 64 -3 77 -19 86 -25 13 -240 13
-263 -1z m242 -84 l0 -66 -107 3 -108 3 -3 63 -3 62 111 0 110 0 0 -65z"/>
<path d="M3240 275 c0 -88 1 -95 20 -95 17 0 20 7 20 40 l0 40 96 0 c72 0 95
3 91 13 -2 8 -31 12 -93 13 l-89 2 0 27 0 27 94 2 c65 1 96 5 98 14 4 9 -24
12 -116 12 l-121 0 0 -95z"/>
<path d="M3500 357 c0 -10 16 -14 58 -13 l57 0 3 -82 c2 -73 5 -82 22 -82 17
0 20 9 22 82 l3 83 59 0 c38 0 61 4 63 13 4 9 -29 12 -141 12 -116 0 -146 -3
-146 -13z"/>
<path d="M80 325 c-7 -8 -14 -32 -17 -55 -5 -38 -4 -40 20 -40 19 0 26 6 29
28 3 15 8 34 12 42 9 22 -28 44 -44 25z"/>
<path d="M204 306 c-23 -23 -34 -43 -34 -63 0 -113 202 -142 247 -35 30 71
-28 132 -125 132 -48 0 -58 -4 -88 -34z"/>
<path d="M22 171 c-10 -6 -8 -14 9 -34 18 -24 39 -29 39 -9 -1 19 -36 51 -48
43z"/>
<path d="M535 160 c-4 -11 -26 -37 -51 -57 -42 -35 -54 -53 -36 -53 16 0 93
72 108 101 13 25 13 29 0 29 -8 0 -18 -9 -21 -20z"/>
<path d="M2013 134 c-8 -22 10 -36 43 -32 21 2 30 9 32 26 3 19 -1 22 -33 22
-23 0 -38 -5 -42 -16z m67 -9 c0 -9 -9 -15 -25 -15 -16 0 -25 6 -25 15 0 9 9
15 25 15 16 0 25 -6 25 -15z"/>
<path d="M2190 125 c0 -22 4 -25 33 -24 23 1 26 3 10 6 -13 2 -23 11 -23 18 0
7 10 16 23 18 16 3 13 5 -10 6 -29 1 -33 -2 -33 -24z"/>
<path d="M2484 135 c-9 -23 5 -35 39 -34 30 2 31 2 5 6 -36 6 -36 30 0 36 25
4 24 4 -6 6 -20 0 -35 -4 -38 -14z"/>
<path d="M2652 128 c2 -19 9 -23 38 -23 28 0 35 4 35 20 0 16 -8 21 -38 23
-35 3 -38 1 -35 -20z m58 -3 c0 -9 -9 -15 -25 -15 -16 0 -25 6 -25 15 0 9 9
15 25 15 16 0 25 -6 25 -15z"/>
<path d="M2860 125 c0 -22 4 -25 33 -24 23 1 26 3 10 6 -15 3 -23 12 -23 24 0
10 -4 19 -10 19 -5 0 -10 -11 -10 -25z"/>
<path d="M3022 128 c2 -19 9 -23 38 -23 28 0 35 4 35 20 0 16 -8 21 -38 23
-35 3 -38 1 -35 -20z m58 -3 c0 -9 -9 -15 -25 -15 -16 0 -25 6 -25 15 0 9 9
15 25 15 16 0 25 -6 25 -15z"/>
<path d="M3231 123 c1 -19 3 -22 6 -10 5 18 6 18 24 1 18 -16 22 -16 30 -4 8
12 12 12 16 2 8 -20 22 -4 16 18 -5 20 -7 20 -24 4 -18 -16 -20 -16 -37 -1
-26 24 -32 21 -31 -10z"/>
<path d="M3422 128 c2 -18 10 -23 33 -23 23 0 31 5 33 23 3 19 -1 22 -33 22
-32 0 -36 -3 -33 -22z m51 5 c-7 -2 -19 -2 -25 0 -7 3 -2 5 12 5 14 0 19 -2
13 -5z m0 -20 c-7 -2 -19 -2 -25 0 -7 3 -2 5 12 5 14 0 19 -2 13 -5z"/>
<path d="M3590 125 c0 -15 4 -24 10 -20 6 3 10 12 10 20 0 8 -4 17 -10 20 -6
4 -10 -5 -10 -20z"/>
<path d="M3715 123 l-18 -28 21 19 c21 18 23 18 42 1 11 -10 20 -14 20 -8 0
10 -32 43 -42 43 -3 0 -14 -12 -23 -27z"/>
<path d="M2228 123 c7 -3 16 -2 19 1 4 3 -2 6 -13 5 -11 0 -14 -3 -6 -6z"/>
</g>
</svg>
